<svg xmlns="http://www.w3.org/2000/svg" width="39" height="40" viewBox="0 0 39 40">
    <path fill="#FFF" fill-rule="nonzero" d="M38.836 11.64L38.818 0H0v40h38.818V28.352L30.96 19.88l7.876-8.24zm-3.103 18.076v7.2H3.161V3.084h32.572v7.337l-6.923 7.235a48.28 48.28 0 0 0-1.877-1.724c-1.273-1.11-2.375-1.939-3.357-2.532l-.106.022-.032-.11a7.527 7.527 0 0 0-1.008-.52 5.614 5.614 0 0 0-1.284-.414 7.62 7.62 0 0 0-1.695-.193c-4.195 0-7.716 3.434-7.716 7.632 0 4.194 3.449 7.72 7.643 7.72.564 0 1.131-.063 1.673-.186.259-.055.913-.266.939-.277l.153-.062c2.07-.833 4.027-2.404 5.569-3.863l.073-.069-2.121-2.27-.095.088c-1.113 1.036-2.935 2.59-4.561 3.23l-.062.022a4.49 4.49 0 0 1-1.553.272c-2.496 0-4.577-2.11-4.577-4.605a4.526 4.526 0 0 1 4.522-4.522c.564 0 1.208.124 1.724.324 1.044.455 2.954 1.794 5.475 4.249v.004l.102.094a68.354 68.354 0 0 1 1.964 1.928l7.13 7.821z"/>
</svg>
